<svg width="106" height="73" viewBox="0 0 106 73" fill="none" xmlns="http://www.w3.org/2000/svg">
<mask id="mask0_29_311" style="mask-type:luminance" maskUnits="userSpaceOnUse" x="0" y="0" width="106" height="73">
<path d="M105.372 0H0V72.075H105.372V0Z" fill="white"/>
</mask>
<g mask="url(#mask0_29_311)">
<path d="M104.737 4.22404C104.726 4.23504 104.715 4.23503 104.715 4.25803L104.692 4.28004C104.658 4.31504 104.646 4.32603 104.658 4.32603L71.9666 38.676L64.2666 46.769C64.2528 46.7588 64.2372 46.7514 64.2206 46.747L64.0846 46.679L32.5986 32.629L33.7466 32.095L39.0546 29.606L46.4546 26.139C46.4677 26.128 46.4831 26.1201 46.4996 26.116H46.5116L101.732 0.257026C102.259 0.00948228 102.856 -0.0494243 103.422 0.0901861C103.987 0.229797 104.488 0.559472 104.84 1.02402C105.192 1.48858 105.374 2.05986 105.355 2.64234C105.336 3.22482 105.118 3.78319 104.737 4.22404Z" fill="url(#paint0_linear_29_311)"/>
<g style="mix-blend-mode:multiply" opacity="0.2">
<path d="M0.423501 21.3992H0.435494C0.423494 21.4102 0.423499 21.4212 0.412499 21.4332C0.411648 21.427 0.412196 21.4208 0.414101 21.4149C0.416006 21.409 0.41922 21.4036 0.423501 21.3992Z" fill="black"/>
</g>
<g style="mix-blend-mode:multiply" opacity="0.2">
<path d="M64.2708 46.7691C64.2708 46.7691 63.2358 46.3941 61.4398 45.7121C59.6398 44.9961 57.0748 44.0421 54.0178 42.7911C50.9598 41.5631 47.4018 40.0971 43.6178 38.4831C39.8338 36.8691 35.8088 35.0961 31.7848 33.3231C29.7848 32.4131 27.7848 31.5151 25.8178 30.6171C23.8508 29.7421 21.9298 28.8171 20.0548 27.9581C16.3268 26.2181 12.8598 24.5581 9.90381 23.0931C8.41481 22.3761 7.0738 21.6931 5.8688 21.0811C5.2778 20.7811 4.7098 20.4891 4.2088 20.2511C3.75909 20.0393 3.26054 19.953 2.76581 20.0011C2.04867 20.0663 1.37673 20.3797 0.865799 20.8871C0.820907 20.9297 0.779133 20.9755 0.740799 21.0241C0.705799 21.0581 0.671808 21.1031 0.640808 21.1371C0.607575 21.1677 0.577119 21.2012 0.549805 21.2371C0.948022 20.5939 1.56854 20.1194 2.29356 19.9035C3.01859 19.6876 3.79763 19.7455 4.4828 20.0661L32.6048 32.6261L33.7528 32.0921C37.3528 33.7171 40.9478 35.3431 44.3128 36.9231C48.0408 38.6621 51.5078 40.3331 54.4738 41.7881C57.4398 43.2431 59.8738 44.5041 61.5898 45.3681C62.8738 46.0281 63.7378 46.4821 64.0898 46.6761L64.2258 46.7441C64.2423 46.7495 64.2575 46.758 64.2708 46.7691Z" fill="black"/>
</g>
<path d="M64.2712 46.7691L51.8712 59.8071C51.8625 59.8174 51.8551 59.8288 51.8492 59.8411C51.8492 59.8411 51.8372 59.8301 51.8372 59.8411L41.9482 70.2411C41.8051 70.3935 41.6535 70.5377 41.4942 70.6731C40.8721 71.2001 40.1477 71.5928 39.3665 71.8262C38.5853 72.0597 37.7642 72.129 36.9549 72.0297C36.1456 71.9304 35.3657 71.6647 34.6641 71.2494C33.9625 70.834 33.3544 70.2779 32.8782 69.6161L13.1562 42.2221V42.2111C13.1332 42.1991 13.1332 42.1881 13.1332 42.1881L12.8952 41.8581L0.619182 24.8191C0.26385 24.3477 0.0522674 23.7837 0.00986799 23.1948C-0.0325314 22.606 0.0960591 22.0175 0.380184 21.5001C0.390742 21.4867 0.398554 21.4714 0.403179 21.4551L0.407634 21.4542L0.411342 21.4515L0.413646 21.4476L0.41418 21.4431V21.4321C0.413329 21.4259 0.413877 21.4197 0.415782 21.4138C0.417687 21.4079 0.420901 21.4025 0.425182 21.3981H0.437175C0.459175 21.3521 0.505182 21.3071 0.550182 21.2391C0.948399 20.5959 1.56892 20.1213 2.29394 19.9054C3.01896 19.6896 3.79801 19.7475 4.48318 20.0681L32.6052 32.6281L64.0912 46.6781L64.2272 46.7461C64.2431 46.7509 64.2581 46.7587 64.2712 46.7691Z" fill="url(#paint1_linear_29_311)"/>
<g style="mix-blend-mode:multiply" opacity="0.2">
<path d="M71.9666 38.6762L64.2666 46.7692C64.2528 46.759 64.2372 46.7515 64.2206 46.7472L32.5986 32.6292L33.7466 32.0952L39.0546 29.6062L71.9666 38.6762Z" fill="black"/>
</g>
<g style="mix-blend-mode:screen" opacity="0.5">
<path d="M0.423474 21.3992H0.435467C0.423467 21.4212 0.412472 21.4332 0.412472 21.4442C0.410844 21.4284 0.414731 21.4125 0.423474 21.3992Z" fill="white"/>
</g>
<g style="mix-blend-mode:screen" opacity="0.5">
<path d="M64.2708 46.7691C64.2708 46.7691 63.2358 46.3941 61.4398 45.7121C59.6398 44.9961 57.0748 44.0421 54.0178 42.7911C50.9598 41.5631 47.4018 40.0971 43.6178 38.4831C39.8338 36.8691 35.8088 35.0961 31.7848 33.3231C29.7848 32.4131 27.7848 31.5151 25.8178 30.6171C23.8508 29.7421 21.9298 28.8171 20.0548 27.9581C16.3268 26.2181 12.8598 24.5581 9.90381 23.0931C8.41481 22.3761 7.0738 21.6931 5.8688 21.0811C5.2778 20.7811 4.7098 20.4891 4.2088 20.2511C3.75909 20.0393 3.26054 19.953 2.76581 20.0011C2.04867 20.0663 1.37673 20.3797 0.865799 20.8871C0.820907 20.9297 0.779133 20.9755 0.740799 21.0241C0.704285 21.0588 0.670837 21.0967 0.640808 21.1371C0.607575 21.1677 0.577119 21.2012 0.549805 21.2371C0.948022 20.5939 1.56854 20.1194 2.29356 19.9035C3.01859 19.6876 3.79763 19.7455 4.4828 20.0661L32.6048 32.6261L64.0908 46.6761L64.2268 46.7441C64.2429 46.7496 64.2578 46.7581 64.2708 46.7691Z" fill="white"/>
</g>
<g style="mix-blend-mode:multiply" opacity="0.2">
<path d="M51.8353 59.8412L41.9463 70.2412C41.8032 70.3936 41.6516 70.5378 41.4923 70.6732C40.8702 71.2002 40.1458 71.5929 39.3646 71.8263C38.5834 72.0598 37.7623 72.1291 36.953 72.0298C36.1438 71.9305 35.3638 71.6648 34.6622 71.2495C33.9606 70.8341 33.3525 70.278 32.8763 69.6162L13.1543 42.2222C13.2913 42.3702 13.8593 43.0402 14.7543 44.1222C15.7543 45.3722 17.2323 47.1342 18.9263 49.2942C20.6203 51.4542 22.5863 53.9882 24.6433 56.7392C26.7123 59.4672 28.8603 62.4392 31.0203 65.3892L32.6113 67.6292L33.3953 68.7422L33.6003 69.0152C33.6522 69.0949 33.7093 69.171 33.7713 69.2432C33.8912 69.4058 34.0251 69.5577 34.1713 69.6972C34.6953 70.2271 35.3295 70.6352 36.0289 70.8925C36.7283 71.1498 37.4758 71.2501 38.2183 71.1862C38.9444 71.1265 39.6496 70.9135 40.2873 70.5612C40.5925 70.3931 40.8782 70.1919 41.1393 69.9612L41.3673 69.7682L41.4573 69.6882L41.5573 69.5742L41.9773 69.1652C43.0913 68.0512 44.1603 67.0172 45.1603 66.0652C47.1273 64.1552 48.8323 62.6212 49.9913 61.5072C51.0303 60.5612 51.6883 59.9612 51.8353 59.8412Z" fill="black"/>
</g>
<g style="mix-blend-mode:screen" opacity="0.5">
<path d="M105.044 3.67809C105.183 3.3638 105.252 3.02245 105.244 2.67855C105.236 2.33466 105.152 1.99677 104.999 1.68911C104.795 1.2308 104.443 0.853852 104 0.61828C103.558 0.382708 103.049 0.302034 102.555 0.389093C101.933 0.59485 101.338 0.873471 100.782 1.21911C100.134 1.54811 99.4515 1.90109 98.7465 2.26409C95.9045 3.73109 92.5745 5.40212 88.9935 7.16412C87.1935 8.02812 85.3455 8.96409 83.4465 9.84609C81.5476 10.7281 79.6396 11.6541 77.7186 12.5631C73.8536 14.3631 69.9886 16.1431 66.3396 17.7691C62.6906 19.3951 59.2816 20.8831 56.3396 22.1221C53.3956 23.3841 50.9175 24.3501 49.1895 25.0661C47.7005 25.6661 46.7456 26.0211 46.5186 26.1121L101.739 0.253107C102.266 0.00800256 102.861 -0.0490192 103.426 0.0915467C103.99 0.232113 104.489 0.561781 104.84 1.02563C105.191 1.48948 105.372 2.05951 105.353 2.64077C105.335 3.22203 105.118 3.77943 104.739 4.22012C104.86 4.05134 104.962 3.86953 105.044 3.67809Z" fill="white"/>
</g>
<g style="mix-blend-mode:screen" opacity="0.3">
<path d="M102.43 3.3711L98.2814 7.72511C95.2921 10.8624 92.3064 13.9995 89.3244 17.1361L48.1084 27.8781C57.7704 23.3541 67.4371 18.8301 77.1084 14.3061C84.8031 10.7061 92.5031 7.09913 100.208 3.48512C100.947 3.14412 101.686 2.79111 102.425 2.45011C103.33 2.01811 102.815 2.9611 102.43 3.3711Z" fill="white"/>
</g>
<g style="mix-blend-mode:screen" opacity="0.3">
<path d="M60.4175 47.5312C58.5301 49.4986 56.6508 51.4725 54.7795 53.4532C54.2565 53.9992 53.7345 54.5532 53.2115 55.1012L3.23047 22.1152C3.80544 22.2176 4.35643 22.4258 4.85547 22.7292C12.9495 26.3432 21.0465 29.9579 29.1465 33.5732C39.5711 38.2319 49.9948 42.8846 60.4175 47.5312Z" fill="white"/>
</g>
</g>
<defs>
<linearGradient id="paint0_linear_29_311" x1="12.8813" y1="23.3926" x2="105.356" y2="23.3926" gradientUnits="userSpaceOnUse">
<stop stop-color="#F72585"/>
</linearGradient>
<linearGradient id="paint1_linear_29_311" x1="35.8143" y1="78.7874" x2="32.628" y2="12" gradientUnits="userSpaceOnUse">
<stop stop-color="#18A0FB"/>
<stop offset="1" stop-color="#5E53A0"/>
</linearGradient>
</defs>
</svg>
